<svg width="13" height="14" viewBox="0 0 13 14" fill="none" xmlns="http://www.w3.org/2000/svg">
<path d="M2.01783 1.9892C1.9373 1.97778 1.85519 1.9867 1.77898 2.01514C1.70278 2.04357 1.6349 2.09063 1.58153 2.15201C1.52816 2.21339 1.491 2.28715 1.47342 2.36656C1.45585 2.44598 1.45843 2.52853 1.48093 2.6067L2.40003 5.80795C2.45845 6.01141 2.58151 6.19033 2.7506 6.31768C2.9197 6.44503 3.12564 6.51389 3.33733 6.51385H7.31208C7.44137 6.51385 7.56537 6.56521 7.65679 6.65664C7.74822 6.74806 7.79958 6.87206 7.79958 7.00135C7.79958 7.13064 7.74822 7.25464 7.65679 7.34606C7.56537 7.43749 7.44137 7.48885 7.31208 7.48885H3.33733C3.12564 7.48881 2.9197 7.55767 2.7506 7.68502C2.58151 7.81237 2.45845 7.99129 2.40003 8.19475L1.48093 11.3966C1.45843 11.4748 1.45585 11.5574 1.47342 11.6368C1.491 11.7162 1.52816 11.79 1.58153 11.8513C1.6349 11.9127 1.70278 11.9598 1.77898 11.9882C1.85519 12.0166 1.9373 12.0256 2.01783 12.0141C5.72035 11.4883 9.18161 9.86912 11.9583 7.36405C12.0091 7.31833 12.0497 7.26245 12.0775 7.20002C12.1053 7.13759 12.1197 7.07001 12.1197 7.00167C12.1197 6.93333 12.1053 6.86576 12.0775 6.80333C12.0497 6.7409 12.0091 6.68501 11.9583 6.6393C9.18159 4.13426 5.72034 2.51511 2.01783 1.9892Z" fill="white"/>
</svg>
