<svg width="26" height="26" viewBox="0 0 26 26" fill="none" xmlns="http://www.w3.org/2000/svg">
<path fill-rule="evenodd" clip-rule="evenodd" d="M25.6156 18.4129C25.5 18.307 25.3644 18.2246 25.2165 18.1705C25.0686 18.1164 24.9114 18.0916 24.7538 18.0974C24.5962 18.1033 24.4414 18.1398 24.298 18.2047C24.1547 18.2697 24.0258 18.3619 23.9186 18.4761L20.7966 21.7954L20.7966 10.0243C20.7966 9.70987 20.6701 9.40834 20.4449 9.18602C20.2197 8.9637 19.9143 8.83881 19.5959 8.83881C19.2774 8.83881 18.972 8.9637 18.7468 9.18602C18.5216 9.40834 18.3951 9.70987 18.3951 10.0243L18.3951 21.7954L15.2732 18.4761C15.166 18.3619 15.037 18.2697 14.8937 18.2048C14.7504 18.1398 14.5955 18.1033 14.4379 18.0975C14.2803 18.0916 14.1231 18.1164 13.9753 18.1705C13.8274 18.2247 13.6918 18.307 13.5761 18.4129C13.4605 18.5187 13.3671 18.646 13.3013 18.7875C13.2355 18.929 13.1986 19.0819 13.1926 19.2375C13.1867 19.3931 13.2118 19.5483 13.2667 19.6943C13.3215 19.8403 13.4049 19.9742 13.5121 20.0883L18.7153 25.6205C18.8277 25.7402 18.964 25.8357 19.1155 25.901C19.267 25.9663 19.4305 26 19.5959 26C19.7612 26 19.9247 25.9663 20.0763 25.901C20.2278 25.8357 20.364 25.7402 20.4764 25.6205L25.6796 20.0883C25.7869 19.9742 25.8703 19.8403 25.9251 19.6943C25.9799 19.5483 26.0051 19.3931 25.9991 19.2375C25.9932 19.0819 25.9563 18.929 25.8905 18.7875C25.8247 18.646 25.7313 18.5187 25.6156 18.4129Z" fill="#FAFAFD"/>
<path d="M12.6991 7.21257C12.6332 7.35406 12.5399 7.48137 12.4242 7.58722C12.3086 7.6931 12.173 7.77544 12.0251 7.82957C11.8772 7.88369 11.72 7.90852 11.5624 7.90265C11.4048 7.89678 11.2499 7.86032 11.1066 7.79535C10.9633 7.73038 10.8344 7.63817 10.7272 7.524L7.60521 4.20468L7.60521 15.9758C7.60521 16.2902 7.47871 16.5917 7.25352 16.8141C7.02834 17.0364 6.72293 17.1613 6.40447 17.1613C6.08601 17.1613 5.7806 17.0364 5.55541 16.8141C5.33023 16.5917 5.20372 16.2902 5.20372 15.9758L5.20373 4.20468L2.08178 7.524C1.97456 7.63816 1.84561 7.73035 1.7023 7.79532C1.55898 7.86028 1.40411 7.89674 1.24652 7.90261C1.08894 7.90848 0.931726 7.88365 0.78386 7.82953C0.635994 7.77542 0.500367 7.69308 0.384732 7.58722C0.269097 7.48136 0.175717 7.35405 0.109917 7.21256C0.0441176 7.07107 0.00719136 6.91816 0.00124425 6.76258C-0.00470286 6.607 0.0204455 6.45179 0.075257 6.3058C0.130069 6.15982 0.213471 6.02592 0.320697 5.91176L5.52392 0.379566C5.63633 0.259867 5.77255 0.164375 5.92407 0.0990718C6.07559 0.0337684 6.23914 6.0748e-05 6.40447 6.07552e-05C6.5698 6.07624e-05 6.73335 0.0337684 6.88487 0.0990719C7.03639 0.164375 7.17261 0.259867 7.28502 0.379566L12.4882 5.91176C12.5955 6.02591 12.6789 6.15981 12.7337 6.3058C12.7885 6.45178 12.8137 6.607 12.8077 6.76259C12.8018 6.91817 12.7649 7.07107 12.6991 7.21257Z" fill="#FAFAFD"/>
</svg>
